STARTFONT 2.1
FONT -Monotype-Times New Roman-Regular-R-Normal--18-180-75-75-P-84-iso8859-4
SIZE 18 75 75
FONTBOUNDINGBOX 22 21 -3 -5

STARTPROPERTIES 24
FOUNDRY "Monotype"
FAMILY_NAME "Times New Roman"
WEIGHT_NAME "Regular"
SLANT "R"
SETWIDTH_NAME "Normal"
ADD_STYLE_NAME ""
PIXEL_SIZE 18
POINT_SIZE 180
RESOLUTION_X 75
RESOLUTION_Y 75
SPACING "P"
AVERAGE_WIDTH 84
CHARSET_REGISTRY "iso8859"
CHARSET_ENCODING "4"
FACE_NAME "Times New Roman ISO Latin4"
_DEC_DEVICE_FONTNAMES "PS=timesnewroman-lat4"
COPYRIGHT "Copyright (c) 1994 Monotype Typography Ltd."
CAP_HEIGHT 14
X_HEIGHT 9
WEIGHT 10
QUAD_WIDTH 11
DEFAULT_CHAR 160
FONT_DESCENT 5
FONT_ASCENT 17
ENDPROPERTIES

CHARS 191

STARTCHAR space
ENCODING 32
SWIDTH 250 0
DWIDTH 5 0
BBX 0 0 0 0
BITMAP
ENDCHAR

STARTCHAR exclam
ENCODING 33
SWIDTH 333 0
DWIDTH 6 0
BBX 2 13 2 0
BITMAP
C0
C0
C0
C0
C0
C0
40
40
40
00
00
C0
C0
ENDCHAR

STARTCHAR quotedbl
ENCODING 34
SWIDTH 408 0
DWIDTH 8 0
BBX 5 6 2 7
BITMAP
D8
D8
D8
D8
48
48
ENDCHAR

STARTCHAR numbersign
ENCODING 35
SWIDTH 500 0
DWIDTH 10 0
BBX 9 13 0 0
BITMAP
1100
1100
1100
1100
FF80
2200
2200
2200
FF80
4400
4400
4400
4400
ENDCHAR

STARTCHAR dollar
ENCODING 36
SWIDTH 500 0
DWIDTH 10 0
BBX 7 15 1 -1
BITMAP
10
7C
D6
D2
D0
D0
70
38
1C
16
16
96
D6
7C
10
ENDCHAR

STARTCHAR percent
ENCODING 37
SWIDTH 833 0
DWIDTH 16 0
BBX 14 13 1 0
BITMAP
7020
D820
D840
D880
D900
D900
7238
046C
046C
086C
106C
106C
2038
ENDCHAR

STARTCHAR ampersand
ENCODING 38
SWIDTH 778 0
DWIDTH 15 0
BBX 14 13 1 0
BITMAP
0700
0D80
1980
1980
1B00
0C38
1C10
6620
6740
C380
C184
63E4
3C78
ENDCHAR

STARTCHAR quoteright
ENCODING 39
SWIDTH 333 0
DWIDTH 6 0
BBX 2 4 2 9
BITMAP
C0
C0
40
80
ENDCHAR

STARTCHAR parenleft
ENCODING 40
SWIDTH 333 0
DWIDTH 6 0
BBX 5 17 1 -4
BITMAP
18
30
60
60
C0
C0
C0
C0
C0
C0
C0
C0
C0
60
60
30
18
ENDCHAR

STARTCHAR parenright
ENCODING 41
SWIDTH 333 0
DWIDTH 6 0
BBX 5 17 1 -4
BITMAP
C0
60
30
30
18
18
18
18
18
18
18
18
18
30
30
60
C0
ENDCHAR

STARTCHAR asterisk
ENCODING 42
SWIDTH 500 0
DWIDTH 10 0
BBX 6 7 2 6
BITMAP
30
B4
DC
78
DC
B4
30
ENDCHAR

STARTCHAR plus
ENCODING 43
SWIDTH 564 0
DWIDTH 11 0
BBX 9 9 1 0
BITMAP
0800
0800
0800
0800
FF80
0800
0800
0800
0800
ENDCHAR

STARTCHAR comma
ENCODING 44
SWIDTH 250 0
DWIDTH 5 0
BBX 2 4 1 -2
BITMAP
C0
C0
40
80
ENDCHAR

STARTCHAR minus
ENCODING 45
SWIDTH 564 0
DWIDTH 11 0
BBX 10 1 1 4
BITMAP
FFC0
ENDCHAR

STARTCHAR period
ENCODING 46
SWIDTH 250 0
DWIDTH 5 0
BBX 2 2 1 0
BITMAP
C0
C0
ENDCHAR

STARTCHAR slash
ENCODING 47
SWIDTH 278 0
DWIDTH 5 0
BBX 5 13 0 0
BITMAP
08
08
08
10
10
20
20
20
40
40
40
80
80
ENDCHAR

STARTCHAR zero
ENCODING 48
SWIDTH 500 0
DWIDTH 10 0
BBX 8 13 1 0
BITMAP
3C
66
C3
C3
C3
C3
C3
C3
C3
C3
C3
66
3C
ENDCHAR

STARTCHAR one
ENCODING 49
SWIDTH 500 0
DWIDTH 10 0
BBX 4 13 3 0
BITMAP
20
E0
60
60
60
60
60
60
60
60
60
60
F0
ENDCHAR

STARTCHAR two
ENCODING 50
SWIDTH 500 0
DWIDTH 10 0
BBX 8 13 1 0
BITMAP
3C
66
43
03
03
03
06
04
08
10
21
7E
FE
ENDCHAR

STARTCHAR three
ENCODING 51
SWIDTH 500 0
DWIDTH 10 0
BBX 8 13 1 0
BITMAP
3C
4E
86
06
04
08
3C
06
03
03
03
C6
7C
ENDCHAR

STARTCHAR four
ENCODING 52
SWIDTH 500 0
DWIDTH 10 0
BBX 8 13 1 0
BITMAP
02
06
0E
16
26
26
46
FF
FF
06
06
06
06
ENDCHAR

STARTCHAR five
ENCODING 53
SWIDTH 500 0
DWIDTH 10 0
BBX 8 13 1 0
BITMAP
1E
3E
20
40
78
1C
06
03
03
03
02
C4
F8
ENDCHAR

STARTCHAR six
ENCODING 54
SWIDTH 500 0
DWIDTH 10 0
BBX 8 13 1 0
BITMAP
07
18
30
60
DC
E6
C3
C3
C3
C3
C3
66
3C
ENDCHAR

STARTCHAR seven
ENCODING 55
SWIDTH 500 0
DWIDTH 10 0
BBX 8 13 1 0
BITMAP
7F
FF
82
02
04
04
08
08
08
10
10
20
20
ENDCHAR

STARTCHAR eight
ENCODING 56
SWIDTH 500 0
DWIDTH 10 0
BBX 8 13 1 0
BITMAP
3C
66
C3
C3
C3
66
3C
66
C3
C3
C3
66
3C
ENDCHAR

STARTCHAR nine
ENCODING 57
SWIDTH 500 0
DWIDTH 10 0
BBX 8 13 1 0
BITMAP
3C
66
C3
C3
C3
C3
C3
67
3B
06
0C
18
E0
ENDCHAR

STARTCHAR colon
ENCODING 58
SWIDTH 278 0
DWIDTH 5 0
BBX 2 9 1 0
BITMAP
C0
C0
00
00
00
00
00
C0
C0
ENDCHAR

STARTCHAR semicolon
ENCODING 59
SWIDTH 278 0
DWIDTH 5 0
BBX 2 11 1 -2
BITMAP
C0
C0
00
00
00
00
00
C0
C0
40
80
ENDCHAR

STARTCHAR less
ENCODING 60
SWIDTH 564 0
DWIDTH 11 0
BBX 10 9 0 0
BITMAP
0040
0180
0E00
3000
C000
3000
0C00
0380
0040
ENDCHAR

STARTCHAR equal
ENCODING 61
SWIDTH 564 0
DWIDTH 11 0
BBX 10 4 0 3
BITMAP
FFC0
0000
0000
FFC0
ENDCHAR

STARTCHAR greater
ENCODING 62
SWIDTH 564 0
DWIDTH 11 0
BBX 10 9 1 0
BITMAP
8000
7000
0C00
0300
00C0
0300
1C00
6000
8000
ENDCHAR

STARTCHAR question
ENCODING 63
SWIDTH 444 0
DWIDTH 8 0
BBX 7 13 1 0
BITMAP
78
8C
C6
C6
06
0C
18
10
10
10
00
30
30
ENDCHAR

STARTCHAR at
ENCODING 64
SWIDTH 921 0
DWIDTH 17 0
BBX 17 18 0 -5
BITMAP
07F000
080C00
100200
200200
40D100
433100
863100
8C6100
986100
986200
98C200
8DCC00
46F080
400100
200200
100400
0C3800
03C000
ENDCHAR

STARTCHAR A
ENCODING 65
SWIDTH 722 0
DWIDTH 14 0
BBX 12 13 1 0
BITMAP
0400
0600
0600
0B00
0B00
1180
1180
20C0
3FC0
20C0
4060
4060
E0F0
ENDCHAR

STARTCHAR B
ENCODING 66
SWIDTH 667 0
DWIDTH 13 0
BBX 10 13 1 0
BITMAP
FF00
6180
60C0
60C0
60C0
6180
7F00
6180
60C0
60C0
60C0
6180
FF00
ENDCHAR

STARTCHAR C
ENCODING 67
SWIDTH 667 0
DWIDTH 13 0
BBX 11 13 1 0
BITMAP
0FA0
3060
6020
6020
C000
C000
C000
C000
C000
6000
6020
3040
0F80
ENDCHAR

STARTCHAR D
ENCODING 68
SWIDTH 722 0
DWIDTH 14 0
BBX 12 13 1 0
BITMAP
FF00
60C0
6060
6060
6030
6030
6030
6030
6030
6060
6060
60C0
FF00
ENDCHAR

STARTCHAR E
ENCODING 69
SWIDTH 611 0
DWIDTH 12 0
BBX 10 13 1 0
BITMAP
FF80
6080
6080
6000
6100
6100
7F00
6100
6100
6000
6040
6080
FF80
ENDCHAR

STARTCHAR F
ENCODING 70
SWIDTH 556 0
DWIDTH 11 0
BBX 9 13 1 0
BITMAP
FF80
6080
6080
6000
6200
6200
7E00
6200
6200
6000
6000
6000
F000
ENDCHAR

STARTCHAR G
ENCODING 71
SWIDTH 722 0
DWIDTH 14 0
BBX 12 13 1 0
BITMAP
0FA0
3060
6020
6020
C000
C000
C0F0
C060
C060
6060
6060
3060
0FC0
ENDCHAR

STARTCHAR H
ENCODING 72
SWIDTH 722 0
DWIDTH 14 0
BBX 12 13 1 0
BITMAP
F0F0
6060
6060
6060
6060
6060
7FE0
6060
6060
6060
6060
6060
F0F0
ENDCHAR

STARTCHAR I
ENCODING 73
SWIDTH 333 0
DWIDTH 6 0
BBX 4 13 1 0
BITMAP
F0
60
60
60
60
60
60
60
60
60
60
60
F0
ENDCHAR

STARTCHAR J
ENCODING 74
SWIDTH 389 0
DWIDTH 7 0
BBX 6 13 0 0
BITMAP
3C
18
18
18
18
18
18
18
18
18
D8
D8
70
ENDCHAR

STARTCHAR K
ENCODING 75
SWIDTH 722 0
DWIDTH 14 0
BBX 12 13 1 0
BITMAP
F1E0
6080
6100
6200
6400
6800
7800
6C00
6600
6300
6180
60C0
F1F0
ENDCHAR

STARTCHAR L
ENCODING 76
SWIDTH 611 0
DWIDTH 12 0
BBX 10 13 1 0
BITMAP
F000
6000
6000
6000
6000
6000
6000
6000
6000
6040
6040
6080
FF80
ENDCHAR

STARTCHAR M
ENCODING 77
SWIDTH 889 0
DWIDTH 17 0
BBX 15 13 1 0
BITMAP
E00E
600C
701C
701C
582C
582C
4C4C
4C4C
468C
468C
430C
430C
E11E
ENDCHAR

STARTCHAR N
ENCODING 78
SWIDTH 722 0
DWIDTH 14 0
BBX 13 13 0 0
BITMAP
E038
3010
3810
3810
2C10
2610
2310
2190
2190
20D0
2070
2030
7010
ENDCHAR

STARTCHAR O
ENCODING 79
SWIDTH 722 0
DWIDTH 14 0
BBX 12 13 1 0
BITMAP
0F00
30C0
6060
6060
C030
C030
C030
C030
C030
6060
6060
30C0
0F00
ENDCHAR

STARTCHAR P
ENCODING 80
SWIDTH 556 0
DWIDTH 11 0
BBX 9 13 1 0
BITMAP
FE00
6300
6180
6180
6180
6300
7E00
6000
6000
6000
6000
6000
F000
ENDCHAR

STARTCHAR Q
ENCODING 81
SWIDTH 722 0
DWIDTH 14 0
BBX 12 16 1 -3
BITMAP
0F00
30C0
6060
6060
C030
C030
C030
C030
C030
6060
6060
30C0
0F00
0700
0380
0070
ENDCHAR

STARTCHAR R
ENCODING 82
SWIDTH 667 0
DWIDTH 13 0
BBX 12 13 1 0
BITMAP
FE00
6300
6180
6180
6180
6300
7E00
6C00
6600
6300
6180
60C0
F1F0
ENDCHAR

STARTCHAR S
ENCODING 83
SWIDTH 556 0
DWIDTH 11 0
BBX 8 13 2 0
BITMAP
3A
66
C2
C2
E0
70
3C
0E
07
83
83
C6
BC
ENDCHAR

STARTCHAR T
ENCODING 84
SWIDTH 611 0
DWIDTH 12 0
BBX 10 13 1 0
BITMAP
FFC0
8C40
8C40
0C00
0C00
0C00
0C00
0C00
0C00
0C00
0C00
0C00
1E00
ENDCHAR

STARTCHAR U
ENCODING 85
SWIDTH 722 0
DWIDTH 14 0
BBX 12 13 1 0
BITMAP
F070
6020
6020
6020
6020
6020
6020
6020
6020
6020
6020
3040
1F80
ENDCHAR

STARTCHAR V
ENCODING 86
SWIDTH 722 0
DWIDTH 14 0
BBX 12 13 1 0
BITMAP
F070
6020
6020
3040
3040
1880
1880
1880
0D00
0D00
0600
0600
0200
ENDCHAR

STARTCHAR W
ENCODING 87
SWIDTH 944 0
DWIDTH 18 0
BBX 16 13 1 0
BITMAP
F3C7
6182
6182
6182
30C4
30C4
30C4
1968
1A68
1A68
0C30
0C30
0410
ENDCHAR

STARTCHAR X
ENCODING 88
SWIDTH 722 0
DWIDTH 14 0
BBX 12 13 1 0
BITMAP
F070
6020
3040
1880
1880
0D00
0600
0B00
1180
1180
20C0
4060
E0F0
ENDCHAR

STARTCHAR Y
ENCODING 89
SWIDTH 722 0
DWIDTH 14 0
BBX 12 13 1 0
BITMAP
F070
6020
3040
3040
1880
1880
0D00
0600
0600
0600
0600
0600
0F00
ENDCHAR

STARTCHAR Z
ENCODING 90
SWIDTH 611 0
DWIDTH 12 0
BBX 12 13 0 0
BITMAP
3FE0
20C0
4180
0300
0300
0600
0C00
0C00
1800
3010
3020
6020
FFE0
ENDCHAR

STARTCHAR bracketleft
ENCODING 91
SWIDTH 333 0
DWIDTH 6 0
BBX 4 17 1 -4
BITMAP
F0
C0
C0
C0
C0
C0
C0
C0
C0
C0
C0
C0
C0
C0
C0
C0
F0
ENDCHAR

STARTCHAR backslash
ENCODING 92
SWIDTH 278 0
DWIDTH 5 0
BBX 5 13 0 0
BITMAP
80
80
40
40
20
20
20
10
10
10
08
08
08
ENDCHAR

STARTCHAR bracketright
ENCODING 93
SWIDTH 333 0
DWIDTH 6 0
BBX 4 17 1 -4
BITMAP
F0
30
30
30
30
30
30
30
30
30
30
30
30
30
30
30
F0
ENDCHAR

STARTCHAR asciicircum
ENCODING 94
SWIDTH 469 0
DWIDTH 9 0
BBX 9 7 0 6
BITMAP
0800
1C00
1C00
3600
6300
6300
C180
ENDCHAR

STARTCHAR underscore
ENCODING 95
SWIDTH 500 0
DWIDTH 10 0
BBX 10 1 0 -2
BITMAP
FFC0
ENDCHAR

STARTCHAR quoteleft
ENCODING 96
SWIDTH 333 0
DWIDTH 6 0
BBX 2 4 2 8
BITMAP
40
80
C0
C0
ENDCHAR

STARTCHAR a
ENCODING 97
SWIDTH 444 0
DWIDTH 8 0
BBX 8 9 0 0
BITMAP
3C
46
C6
0E
76
C6
C6
CE
77
ENDCHAR

STARTCHAR b
ENCODING 98
SWIDTH 500 0
DWIDTH 10 0
BBX 9 14 0 0
BITMAP
6000
E000
6000
6000
6000
6E00
7300
6180
6180
6180
6180
6180
6300
3E00
ENDCHAR

STARTCHAR c
ENCODING 99
SWIDTH 444 0
DWIDTH 8 0
BBX 7 9 0 0
BITMAP
3C
66
C6
C0
C0
C0
C2
64
38
ENDCHAR

STARTCHAR d
ENCODING 100
SWIDTH 500 0
DWIDTH 10 0
BBX 9 13 0 0
BITMAP
0300
0700
0300
0300
3B00
6700
C300
C300
C300
C300
C300
6700
3B80
ENDCHAR

STARTCHAR e
ENCODING 101
SWIDTH 444 0
DWIDTH 8 0
BBX 7 9 0 0
BITMAP
38
6C
C6
FE
C0
C0
C2
64
38
ENDCHAR

STARTCHAR f
ENCODING 102
SWIDTH 333 0
DWIDTH 6 0
BBX 7 13 0 0
BITMAP
1C
26
60
60
F8
60
60
60
60
60
60
60
F0
ENDCHAR

STARTCHAR g
ENCODING 103
SWIDTH 500 0
DWIDTH 10 0
BBX 9 13 0 -4
BITMAP
1C00
3780
6300
6300
6300
3600
1C00
3000
1F00
7180
C180
C300
7E00
ENDCHAR

STARTCHAR h
ENCODING 104
SWIDTH 500 0
DWIDTH 10 0
BBX 9 14 0 0
BITMAP
6000
E000
6000
6000
6000
6E00
7300
6300
6300
6300
6300
6300
6300
F780
ENDCHAR

STARTCHAR i
ENCODING 105
SWIDTH 278 0
DWIDTH 5 0
BBX 4 13 0 0
BITMAP
60
60
00
00
60
E0
60
60
60
60
60
60
F0
ENDCHAR

STARTCHAR j
ENCODING 106
SWIDTH 278 0
DWIDTH 5 0
BBX 5 17 -2 -4
BITMAP
18
18
00
00
18
38
18
18
18
18
18
18
18
18
18
D0
E0
ENDCHAR

STARTCHAR k
ENCODING 107
SWIDTH 500 0
DWIDTH 10 0
BBX 9 13 0 0
BITMAP
6000
E000
6000
6000
6F00
6400
6800
7000
7800
6C00
6600
6300
F780
ENDCHAR

STARTCHAR l
ENCODING 108
SWIDTH 278 0
DWIDTH 5 0
BBX 4 14 0 0
BITMAP
60
E0
60
60
60
60
60
60
60
60
60
60
60
F0
ENDCHAR

STARTCHAR m
ENCODING 109
SWIDTH 778 0
DWIDTH 15 0
BBX 14 9 0 0
BITMAP
EE70
7398
6318
6318
6318
6318
6318
6318
F7BC
ENDCHAR

STARTCHAR n
ENCODING 110
SWIDTH 500 0
DWIDTH 10 0
BBX 9 9 0 0
BITMAP
EE00
7300
6300
6300
6300
6300
6300
6300
F780
ENDCHAR

STARTCHAR o
ENCODING 111
SWIDTH 500 0
DWIDTH 10 0
BBX 9 9 0 0
BITMAP
3E00
6300
C180
C180
C180
C180
C180
6300
3E00
ENDCHAR

STARTCHAR p
ENCODING 112
SWIDTH 500 0
DWIDTH 10 0
BBX 9 13 0 -4
BITMAP
6E00
F300
6180
6180
6180
6180
6180
7300
6E00
6000
6000
6000
F000
ENDCHAR

STARTCHAR q
ENCODING 113
SWIDTH 500 0
DWIDTH 10 0
BBX 9 13 0 -4
BITMAP
3900
6700
C300
C300
C300
C300
C300
6700
3B00
0300
0300
0300
0780
ENDCHAR

STARTCHAR r
ENCODING 114
SWIDTH 333 0
DWIDTH 6 0
BBX 6 9 0 0
BITMAP
EC
74
60
60
60
60
60
60
F0
ENDCHAR

STARTCHAR s
ENCODING 115
SWIDTH 389 0
DWIDTH 7 0
BBX 6 9 0 0
BITMAP
34
4C
C4
E0
78
1C
8C
C8
B0
ENDCHAR

STARTCHAR t
ENCODING 116
SWIDTH 278 0
DWIDTH 5 0
BBX 5 12 0 0
BITMAP
20
20
60
F8
60
60
60
60
60
60
68
30
ENDCHAR

STARTCHAR u
ENCODING 117
SWIDTH 500 0
DWIDTH 10 0
BBX 9 9 0 0
BITMAP
E700
6300
6300
6300
6300
6300
6300
6700
3B80
ENDCHAR

STARTCHAR v
ENCODING 118
SWIDTH 500 0
DWIDTH 10 0
BBX 9 9 0 0
BITMAP
F380
6100
6100
3200
3200
3200
1C00
1C00
0800
ENDCHAR

STARTCHAR w
ENCODING 119
SWIDTH 722 0
DWIDTH 14 0
BBX 14 9 0 0
BITMAP
F79C
6308
6308
3190
3190
3390
1CE0
1CE0
0840
ENDCHAR

STARTCHAR x
ENCODING 120
SWIDTH 500 0
DWIDTH 10 0
BBX 9 9 0 0
BITMAP
F380
6100
3200
3400
1C00
1600
2600
4300
E780
ENDCHAR

STARTCHAR y
ENCODING 121
SWIDTH 500 0
DWIDTH 10 0
BBX 9 13 1 -4
BITMAP
F380
6100
6100
3200
3200
3200
1C00
1C00
0800
0800
1000
D000
E000
ENDCHAR

STARTCHAR z
ENCODING 122
SWIDTH 444 0
DWIDTH 8 0
BBX 8 9 0 0
BITMAP
3E
26
4C
0C
18
30
31
62
FE
ENDCHAR

STARTCHAR braceleft
ENCODING 123
SWIDTH 480 0
DWIDTH 9 0
BBX 5 17 2 -4
BITMAP
18
30
30
30
30
30
30
60
C0
60
30
30
30
30
30
30
18
ENDCHAR

STARTCHAR bar
ENCODING 124
SWIDTH 200 0
DWIDTH 4 0
BBX 2 17 1 -4
BITMAP
C0
C0
C0
C0
C0
C0
C0
C0
C0
C0
C0
C0
C0
C0
C0
C0
C0
ENDCHAR

STARTCHAR braceright
ENCODING 125
SWIDTH 480 0
DWIDTH 9 0
BBX 5 17 2 -4
BITMAP
C0
60
60
60
60
60
60
30
18
30
60
60
60
60
60
60
C0
ENDCHAR

STARTCHAR asciitilde
ENCODING 126
SWIDTH 541 0
DWIDTH 10 0
BBX 10 3 0 5
BITMAP
38C0
7F80
C700
ENDCHAR

STARTCHAR space
ENCODING 160
SWIDTH 250 0
DWIDTH 6 0
BBX 0 0 0 0
BITMAP
ENDCHAR

STARTCHAR Aogonek
ENCODING 161
SWIDTH 722 0
DWIDTH 14 0
BBX 13 16 1 -3
BITMAP
0400
0600
0600
0B00
0B00
1180
1180
20C0
3FC0
20C0
4060
4060
E0F0
0040
0060
0038
ENDCHAR

STARTCHAR afii240
ENCODING 162
SWIDTH 500 0
DWIDTH 10 0
BBX 9 9 0 0
BITMAP
F780
6200
6400
7800
7800
6C00
6600
6300
F780
ENDCHAR

STARTCHAR Rcommaaccent
ENCODING 163
SWIDTH 667 0
DWIDTH 13 0
BBX 12 18 1 -5
BITMAP
FE00
6300
6180
6180
6180
6300
7E00
6C00
6600
6300
6180
60C0
F1F0
0000
0C00
0C00
0400
0800
ENDCHAR

STARTCHAR currency
ENCODING 164
SWIDTH 500 0
DWIDTH 10 0
BBX 8 8 1 1
BITMAP
BD
42
81
81
81
81
42
BD
ENDCHAR

STARTCHAR Itilde
ENCODING 165
SWIDTH 333 0
DWIDTH 6 0
BBX 5 16 1 0
BITMAP
68
B0
00
F0
60
60
60
60
60
60
60
60
60
60
60
F0
ENDCHAR

STARTCHAR Lcommaaccent
ENCODING 166
SWIDTH 611 0
DWIDTH 12 0
BBX 10 18 1 -5
BITMAP
F000
6000
6000
6000
6000
6000
6000
6000
6000
6040
6040
6080
FF80
0000
0C00
0C00
0400
0800
ENDCHAR

STARTCHAR section
ENCODING 167
SWIDTH 500 0
DWIDTH 10 0
BBX 7 17 1 -4
BITMAP
38
6C
6C
60
30
38
6C
C6
C6
C6
6C
38
18
0C
6C
6C
38
ENDCHAR

STARTCHAR hungarumlaut
ENCODING 168
SWIDTH 333 0
DWIDTH 6 0
BBX 5 2 0 11
BITMAP
48
90
ENDCHAR

STARTCHAR Scaron
ENCODING 169
SWIDTH 556 0
DWIDTH 11 0
BBX 8 16 2 0
BITMAP
24
18
00
3A
66
C2
C2
E0
70
3C
0E
07
83
83
C6
BC
ENDCHAR

STARTCHAR Emacron
ENCODING 170
SWIDTH 611 0
DWIDTH 12 0
BBX 10 15 1 0
BITMAP
1E00
0000
FF80
6080
6080
6000
6100
6100
7F00
6100
6100
6000
6040
6080
FF80
ENDCHAR

STARTCHAR Gcommaaccent
ENCODING 171
SWIDTH 722 0
DWIDTH 14 0
BBX 12 18 1 -5
BITMAP
0FA0
3060
6020
6020
C000
C000
C0F0
C060
C060
6060
6060
3060
0FC0
0000
0300
0300
0100
0200
ENDCHAR

STARTCHAR afii237
ENCODING 172
SWIDTH 611 0
DWIDTH 12 0
BBX 10 13 1 0
BITMAP
FFC0
8C40
8C40
0C00
0C00
0C00
7F80
0C00
0C00
0C00
0C00
0C00
1E00
ENDCHAR

STARTCHAR hyphen
ENCODING 173
SWIDTH 333 0
DWIDTH 6 0
BBX 5 1 0 7
BITMAP
F8
ENDCHAR

STARTCHAR Zcaron
ENCODING 174
SWIDTH 611 0
DWIDTH 12 0
BBX 12 16 0 0
BITMAP
0480
0300
0000
3FE0
20C0
4180
0300
0300
0600
0C00
0C00
1800
3010
3020
6020
FFE0
ENDCHAR

STARTCHAR macron
ENCODING 175
SWIDTH 333 0
DWIDTH 6 0
BBX 6 1 0 11
BITMAP
FC
ENDCHAR

STARTCHAR degree
ENCODING 176
SWIDTH 400 0
DWIDTH 8 0
BBX 6 6 1 7
BITMAP
78
CC
84
84
CC
78
ENDCHAR

STARTCHAR aogonek
ENCODING 177
SWIDTH 444 0
DWIDTH 8 0
BBX 9 12 0 -3
BITMAP
3C00
4600
C600
0E00
7600
C600
C600
CE00
7700
0400
0600
0380
ENDCHAR

STARTCHAR ogonek
ENCODING 178
SWIDTH 333 0
DWIDTH 6 0
BBX 4 3 1 -3
BITMAP
80
C0
70
ENDCHAR

STARTCHAR rcommaaccent
ENCODING 179
SWIDTH 333 0
DWIDTH 6 0
BBX 6 14 0 -5
BITMAP
EC
74
60
60
60
60
60
60
F0
00
60
60
20
40
ENDCHAR

STARTCHAR acute
ENCODING 180
SWIDTH 333 0
DWIDTH 6 0
BBX 2 2 2 11
BITMAP
40
80
ENDCHAR

STARTCHAR itilde
ENCODING 181
SWIDTH 278 0
DWIDTH 5 0
BBX 5 13 0 0
BITMAP
68
B0
00
00
60
E0
60
60
60
60
60
60
F0
ENDCHAR

STARTCHAR lcommaaccent
ENCODING 182
SWIDTH 278 0
DWIDTH 5 0
BBX 4 19 0 -5
BITMAP
60
E0
60
60
60
60
60
60
60
60
60
60
60
F0
00
60
60
20
40
ENDCHAR

STARTCHAR caron
ENCODING 183
SWIDTH 333 0
DWIDTH 6 0
BBX 4 2 1 12
BITMAP
90
60
ENDCHAR

STARTCHAR commaaccent
ENCODING 184
SWIDTH 333 0
DWIDTH 6 0
BBX 2 4 2 -5
BITMAP
C0
C0
40
80
ENDCHAR

STARTCHAR scaron
ENCODING 185
SWIDTH 389 0
DWIDTH 7 0
BBX 6 12 0 0
BITMAP
48
30
00
34
4C
C4
E0
78
1C
8C
C8
B0
ENDCHAR

STARTCHAR emacron
ENCODING 186
SWIDTH 444 0
DWIDTH 8 0
BBX 7 11 0 0
BITMAP
7C
00
38
6C
C6
FE
C0
C0
C2
64
38
ENDCHAR

STARTCHAR gcommaaccent
ENCODING 187
SWIDTH 500 0
DWIDTH 10 0
BBX 9 18 0 -4
BITMAP
0400
0800
0C00
0C00
0000
1C00
3780
6300
6300
6300
3600
1C00
3000
1F00
7180
C180
C300
7E00
ENDCHAR

STARTCHAR afii253
ENCODING 188
SWIDTH 278 0
DWIDTH 5 0
BBX 5 12 0 0
BITMAP
20
20
60
F8
60
60
F8
60
60
60
68
30
ENDCHAR

STARTCHAR afii238
ENCODING 189
SWIDTH 728 0
DWIDTH 14 0
BBX 12 13 1 0
BITMAP
E700
68C0
7060
6060
6030
6030
6030
6030
6030
6030
6330
6360
F1C0
ENDCHAR

STARTCHAR zcaron
ENCODING 190
SWIDTH 444 0
DWIDTH 8 0
BBX 8 12 0 0
BITMAP
24
18
00
3E
26
4C
0C
18
30
31
62
FE
ENDCHAR

STARTCHAR afii254
ENCODING 191
SWIDTH 512 0
DWIDTH 10 0
BBX 8 13 0 -4
BITMAP
EE
73
63
63
63
63
63
63
F3
03
03
1A
1C
ENDCHAR

STARTCHAR Amacron
ENCODING 192
SWIDTH 722 0
DWIDTH 14 0
BBX 12 15 1 0
BITMAP
1F80
0000
0400
0600
0600
0B00
0B00
1180
1180
20C0
3FC0
20C0
4060
4060
E0F0
ENDCHAR

STARTCHAR Aacute
ENCODING 193
SWIDTH 722 0
DWIDTH 14 0
BBX 12 16 1 0
BITMAP
0200
0400
0000
0400
0600
0600
0B00
0B00
1180
1180
20C0
3FC0
20C0
4060
4060
E0F0
ENDCHAR

STARTCHAR Acircumflex
ENCODING 194
SWIDTH 722 0
DWIDTH 14 0
BBX 12 16 1 0
BITMAP
0600
0900
0000
0400
0600
0600
0B00
0B00
1180
1180
20C0
3FC0
20C0
4060
4060
E0F0
ENDCHAR

STARTCHAR Atilde
ENCODING 195
SWIDTH 722 0
DWIDTH 14 0
BBX 12 16 1 0
BITMAP
0D00
1600
0000
0400
0600
0600
0B00
0B00
1180
1180
20C0
3FC0
20C0
4060
4060
E0F0
ENDCHAR

STARTCHAR Adieresis
ENCODING 196
SWIDTH 722 0
DWIDTH 14 0
BBX 12 15 1 0
BITMAP
0900
0000
0400
0600
0600
0B00
0B00
1180
1180
20C0
3FC0
20C0
4060
4060
E0F0
ENDCHAR

STARTCHAR Aring
ENCODING 197
SWIDTH 722 0
DWIDTH 14 0
BBX 12 16 1 0
BITMAP
0600
0900
0900
0600
0600
0600
0B00
0B00
1180
1180
20C0
3FC0
20C0
4060
4060
E0F0
ENDCHAR

STARTCHAR AE
ENCODING 198
SWIDTH 889 0
DWIDTH 17 0
BBX 17 13 0 0
BITMAP
07FF00
01C100
02C100
02C000
04C200
04C200
08FE00
0FC200
10C200
10C000
20C080
20C100
F1FE00
ENDCHAR

STARTCHAR Iogonek
ENCODING 199
SWIDTH 333 0
DWIDTH 6 0
BBX 5 16 1 -3
BITMAP
F0
60
60
60
60
60
60
60
60
60
60
60
F0
40
60
38
ENDCHAR

STARTCHAR Ccaron
ENCODING 200
SWIDTH 667 0
DWIDTH 13 0
BBX 11 16 1 0
BITMAP
0900
0600
0000
0FA0
3060
6020
6020
C000
C000
C000
C000
C000
6000
6020
3040
0F80
ENDCHAR

STARTCHAR Eacute
ENCODING 201
SWIDTH 611 0
DWIDTH 12 0
BBX 10 16 1 0
BITMAP
0400
0800
0000
FF80
6080
6080
6000
6100
6100
7F00
6100
6100
6000
6040
6080
FF80
ENDCHAR

STARTCHAR Eogonek
ENCODING 202
SWIDTH 611 0
DWIDTH 12 0
BBX 10 16 1 -3
BITMAP
FF80
6080
6080
6000
6100
6100
7F00
6100
6100
6000
6040
6080
FF80
0200
0300
01C0
ENDCHAR

STARTCHAR Edieresis
ENCODING 203
SWIDTH 611 0
DWIDTH 12 0
BBX 10 15 1 0
BITMAP
1200
0000
FF80
6080
6080
6000
6100
6100
7F00
6100
6100
6000
6040
6080
FF80
ENDCHAR

STARTCHAR Edotaccent
ENCODING 204
SWIDTH 611 0
DWIDTH 12 0
BBX 10 15 1 0
BITMAP
0400
0000
FF80
6080
6080
6000
6100
6100
7F00
6100
6100
6000
6040
6080
FF80
ENDCHAR

STARTCHAR Iacute
ENCODING 205
SWIDTH 333 0
DWIDTH 6 0
BBX 4 16 1 0
BITMAP
20
40
00
F0
60
60
60
60
60
60
60
60
60
60
60
F0
ENDCHAR

STARTCHAR Icircumflex
ENCODING 206
SWIDTH 333 0
DWIDTH 6 0
BBX 4 16 1 0
BITMAP
60
90
00
F0
60
60
60
60
60
60
60
60
60
60
60
F0
ENDCHAR

STARTCHAR Imacron
ENCODING 207
SWIDTH 333 0
DWIDTH 6 0
BBX 6 15 0 0
BITMAP
FC
00
78
30
30
30
30
30
30
30
30
30
30
30
78
ENDCHAR

STARTCHAR Eth
ENCODING 208
SWIDTH 722 0
DWIDTH 14 0
BBX 13 13 0 0
BITMAP
7F80
3060
3030
3030
3018
3018
FE18
3018
3018
3030
3030
3060
7F80
ENDCHAR

STARTCHAR Ncommaaccent
ENCODING 209
SWIDTH 722 0
DWIDTH 14 0
BBX 13 18 0 -5
BITMAP
E038
3010
3810
3810
2C10
2610
2310
2190
2190
20D0
2070
2030
7010
0000
0300
0300
0100
0200
ENDCHAR

STARTCHAR Omacron
ENCODING 210
SWIDTH 722 0
DWIDTH 14 0
BBX 12 15 1 0
BITMAP
1F80
0000
0F00
30C0
6060
6060
C030
C030
C030
C030
C030
6060
6060
30C0
0F00
ENDCHAR

STARTCHAR Kcommaaccent
ENCODING 211
SWIDTH 722 0
DWIDTH 14 0
BBX 12 18 1 -5
BITMAP
F1E0
6080
6100
6200
6400
6800
7800
6C00
6600
6300
6180
60C0
F1F0
0000
0600
0600
0200
0400
ENDCHAR

STARTCHAR Ocircumflex
ENCODING 212
SWIDTH 722 0
DWIDTH 14 0
BBX 12 16 1 0
BITMAP
0600
0900
0000
0F00
30C0
6060
6060
C030
C030
C030
C030
C030
6060
6060
30C0
0F00
ENDCHAR

STARTCHAR Otilde
ENCODING 213
SWIDTH 722 0
DWIDTH 14 0
BBX 12 16 1 0
BITMAP
0680
0B00
0000
0F00
30C0
6060
6060
C030
C030
C030
C030
C030
6060
6060
30C0
0F00
ENDCHAR

STARTCHAR Odieresis
ENCODING 214
SWIDTH 722 0
DWIDTH 14 0
BBX 12 15 1 0
BITMAP
0900
0000
0F00
30C0
6060
6060
C030
C030
C030
C030
C030
6060
6060
30C0
0F00
ENDCHAR

STARTCHAR multiply
ENCODING 215
SWIDTH 564 0
DWIDTH 11 0
BBX 7 7 2 1
BITMAP
82
44
28
10
28
44
82
ENDCHAR

STARTCHAR Oslash
ENCODING 216
SWIDTH 722 0
DWIDTH 14 0
BBX 12 13 1 0
BITMAP
0F10
30E0
6060
6060
C0B0
C130
C630
C830
D030
6060
6060
70C0
8F00
ENDCHAR

STARTCHAR Uogonek
ENCODING 217
SWIDTH 722 0
DWIDTH 14 0
BBX 12 16 1 -3
BITMAP
F070
6020
6020
6020
6020
6020
6020
6020
6020
6020
6020
3040
1F80
0400
0600
0380
ENDCHAR

STARTCHAR Uacute
ENCODING 218
SWIDTH 722 0
DWIDTH 14 0
BBX 12 16 1 0
BITMAP
0100
0200
0000
F070
6020
6020
6020
6020
6020
6020
6020
6020
6020
6020
3040
1F80
ENDCHAR

STARTCHAR Ucircumflex
ENCODING 219
SWIDTH 722 0
DWIDTH 14 0
BBX 12 16 1 0
BITMAP
0600
0900
0000
F070
6020
6020
6020
6020
6020
6020
6020
6020
6020
6020
3040
1F80
ENDCHAR

STARTCHAR Udieresis
ENCODING 220
SWIDTH 722 0
DWIDTH 14 0
BBX 12 15 1 0
BITMAP
0480
0000
F070
6020
6020
6020
6020
6020
6020
6020
6020
6020
6020
3040
1F80
ENDCHAR

STARTCHAR Utilde
ENCODING 221
SWIDTH 722 0
DWIDTH 14 0
BBX 12 16 1 0
BITMAP
0680
0B00
0000
F070
6020
6020
6020
6020
6020
6020
6020
6020
6020
6020
3040
1F80
ENDCHAR

STARTCHAR Umacron
ENCODING 222
SWIDTH 722 0
DWIDTH 14 0
BBX 12 15 1 0
BITMAP
0F80
0000
F070
6020
6020
6020
6020
6020
6020
6020
6020
6020
6020
3040
1F80
ENDCHAR

STARTCHAR germandbls
ENCODING 223
SWIDTH 500 0
DWIDTH 10 0
BBX 9 13 0 0
BITMAP
1C00
3600
6300
6300
6600
6C00
6600
6300
6180
6180
6180
6B00
E600
ENDCHAR

STARTCHAR amacron
ENCODING 224
SWIDTH 444 0
DWIDTH 8 0
BBX 8 12 0 0
BITMAP
7E
00
00
3C
46
C6
0E
76
C6
C6
CE
77
ENDCHAR

STARTCHAR aacute
ENCODING 225
SWIDTH 444 0
DWIDTH 8 0
BBX 8 13 0 0
BITMAP
08
10
00
00
3C
46
C6
0E
76
C6
C6
CE
77
ENDCHAR

STARTCHAR acircumflex
ENCODING 226
SWIDTH 444 0
DWIDTH 8 0
BBX 8 12 0 0
BITMAP
18
24
00
3C
46
C6
0E
76
C6
C6
CE
77
ENDCHAR

STARTCHAR atilde
ENCODING 227
SWIDTH 444 0
DWIDTH 8 0
BBX 8 13 0 0
BITMAP
34
58
00
00
3C
46
C6
0E
76
C6
C6
CE
77
ENDCHAR

STARTCHAR adieresis
ENCODING 228
SWIDTH 444 0
DWIDTH 8 0
BBX 8 11 0 0
BITMAP
24
00
3C
46
C6
0E
76
C6
C6
CE
77
ENDCHAR

STARTCHAR aring
ENCODING 229
SWIDTH 444 0
DWIDTH 8 0
BBX 8 14 0 0
BITMAP
18
24
24
18
00
3C
46
C6
0E
76
C6
C6
CE
77
ENDCHAR

STARTCHAR ae
ENCODING 230
SWIDTH 667 0
DWIDTH 13 0
BBX 12 9 0 0
BITMAP
39C0
4760
C630
0FF0
7600
C600
C610
CE20
75C0
ENDCHAR

STARTCHAR iogonek
ENCODING 231
SWIDTH 278 0
DWIDTH 5 0
BBX 5 16 0 -3
BITMAP
60
60
00
00
60
E0
60
60
60
60
60
60
F0
40
60
38
ENDCHAR

STARTCHAR ccaron
ENCODING 232
SWIDTH 444 0
DWIDTH 8 0
BBX 7 12 0 0
BITMAP
24
18
00
3C
66
C6
C0
C0
C0
C2
64
38
ENDCHAR

STARTCHAR eacute
ENCODING 233
SWIDTH 444 0
DWIDTH 8 0
BBX 7 12 0 0
BITMAP
08
10
00
38
6C
C6
FE
C0
C0
C2
64
38
ENDCHAR

STARTCHAR eogonek
ENCODING 234
SWIDTH 444 0
DWIDTH 8 0
BBX 7 12 0 -3
BITMAP
38
6C
C6
FE
C0
C0
C2
64
38
10
18
0E
ENDCHAR

STARTCHAR edieresis
ENCODING 235
SWIDTH 444 0
DWIDTH 8 0
BBX 7 11 0 0
BITMAP
24
00
38
6C
C6
FE
C0
C0
C2
64
38
ENDCHAR

STARTCHAR edotaccent
ENCODING 236
SWIDTH 444 0
DWIDTH 8 0
BBX 7 11 0 0
BITMAP
10
00
38
6C
C6
FE
C0
C0
C2
64
38
ENDCHAR

STARTCHAR iacute
ENCODING 237
SWIDTH 278 0
DWIDTH 5 0
BBX 4 12 0 0
BITMAP
20
40
00
60
E0
60
60
60
60
60
60
F0
ENDCHAR

STARTCHAR icircumflex
ENCODING 238
SWIDTH 278 0
DWIDTH 5 0
BBX 4 12 0 0
BITMAP
60
90
00
60
E0
60
60
60
60
60
60
F0
ENDCHAR

STARTCHAR imacron
ENCODING 239
SWIDTH 278 0
DWIDTH 5 0
BBX 4 12 0 0
BITMAP
F0
00
00
60
E0
60
60
60
60
60
60
F0
ENDCHAR

STARTCHAR dcroat
ENCODING 240
SWIDTH 500 0
DWIDTH 10 0
BBX 10 13 0 0
BITMAP
0300
0700
1FC0
0300
3B00
6700
C300
C300
C300
C300
C300
6700
3B80
ENDCHAR

STARTCHAR ncommaaccent
ENCODING 241
SWIDTH 500 0
DWIDTH 10 0
BBX 9 14 0 -5
BITMAP
EE00
7300
6300
6300
6300
6300
6300
6300
F780
0000
1800
1800
0800
1000
ENDCHAR

STARTCHAR omacron
ENCODING 242
SWIDTH 500 0
DWIDTH 10 0
BBX 9 12 0 0
BITMAP
7F00
0000
0000
3E00
6300
C180
C180
C180
C180
C180
6300
3E00
ENDCHAR

STARTCHAR kcommaaccent
ENCODING 243
SWIDTH 500 0
DWIDTH 10 0
BBX 9 18 0 -5
BITMAP
6000
E000
6000
6000
6F00
6400
6800
7000
7800
6C00
6600
6300
F780
0000
1800
1800
0800
1000
ENDCHAR

STARTCHAR ocircumflex
ENCODING 244
SWIDTH 500 0
DWIDTH 10 0
BBX 9 12 0 0
BITMAP
0C00
1200
0000
3E00
6300
C180
C180
C180
C180
C180
6300
3E00
ENDCHAR

STARTCHAR otilde
ENCODING 245
SWIDTH 500 0
DWIDTH 10 0
BBX 9 13 0 0
BITMAP
1A00
2C00
0000
0000
3E00
6300
C180
C180
C180
C180
C180
6300
3E00
ENDCHAR

STARTCHAR odieresis
ENCODING 246
SWIDTH 500 0
DWIDTH 10 0
BBX 9 12 0 0
BITMAP
1200
0000
0000
3E00
6300
C180
C180
C180
C180
C180
6300
3E00
ENDCHAR

STARTCHAR divide
ENCODING 247
SWIDTH 564 0
DWIDTH 11 0
BBX 9 7 1 1
BITMAP
0800
0000
0000
FF80
0000
0000
0800
ENDCHAR

STARTCHAR oslash
ENCODING 248
SWIDTH 500 0
DWIDTH 10 0
BBX 9 9 0 0
BITMAP
3E80
6300
C580
C580
C980
D180
D180
6300
BE00
ENDCHAR

STARTCHAR uogonek
ENCODING 249
SWIDTH 500 0
DWIDTH 10 0
BBX 10 12 0 -3
BITMAP
E700
6300
6300
6300
6300
6300
6300
6700
3B80
0200
0300
01C0
ENDCHAR

STARTCHAR uacute
ENCODING 250
SWIDTH 500 0
DWIDTH 10 0
BBX 9 12 0 0
BITMAP
0400
0800
0000
E700
6300
6300
6300
6300
6300
6300
6700
3B80
ENDCHAR

STARTCHAR ucircumflex
ENCODING 251
SWIDTH 500 0
DWIDTH 10 0
BBX 9 12 0 0
BITMAP
1800
2400
0000
E700
6300
6300
6300
6300
6300
6300
6700
3B80
ENDCHAR

STARTCHAR udieresis
ENCODING 252
SWIDTH 500 0
DWIDTH 10 0
BBX 9 11 0 0
BITMAP
2400
0000
E700
6300
6300
6300
6300
6300
6300
6700
3B80
ENDCHAR

STARTCHAR utilde
ENCODING 253
SWIDTH 500 0
DWIDTH 10 0
BBX 9 12 0 0
BITMAP
1A00
2C00
0000
E700
6300
6300
6300
6300
6300
6300
6700
3B80
ENDCHAR

STARTCHAR umacron
ENCODING 254
SWIDTH 500 0
DWIDTH 10 0
BBX 9 11 0 0
BITMAP
3E00
0000
E700
6300
6300
6300
6300
6300
6300
6700
3B80
ENDCHAR

STARTCHAR dotaccent
ENCODING 255
SWIDTH 333 0
DWIDTH 6 0
BBX 2 2 2 10
BITMAP
C0
C0
ENDCHAR
ENDFONT
